<svg xmlns="http://www.w3.org/2000/svg" viewBox="-10 112 620 620" role="img" aria-labelledby="t2">
<title id="t2">Lupa s cenovkou, ocenenie hodnoty pod drobnohľadom</title>
<rect x="-120" y="-100" width="850" height="1100" fill="#A9D9EF"/>

<!-- šošovka -->
<circle cx="185" cy="305" r="152" fill="#F4FAFD" stroke="#12202B" stroke-width="36"/>

<!-- cenovka s hákom -->
<g transform="translate(178 310) rotate(-35)">
  <path d="M-108 -42 Q-108 -54 -96 -54 L20 -54 L64 0 L20 54 L-96 54 Q-108 54 -108 42 Z" fill="#12202B"/>
  <circle cx="32" cy="0" r="13" fill="#F4FAFD"/>
  <path d="M30 -8 C 44 -66, 112 -92, 122 -46 C 128 -16, 100 -6, 88 -22" fill="none" stroke="#12202B" stroke-width="15" stroke-linecap="round"/>
  <text x="-40" y="21" text-anchor="middle" font-family="Georgia, 'Times New Roman', serif" font-size="58" font-weight="700" fill="#FFFFFF">€</text>
</g>

<!-- objímka a rovná rukoväť smerom doprava dole -->
<g transform="translate(305 425) rotate(-45)">
  <rect x="-25" y="-2" width="50" height="82" rx="8" fill="#12202B"/>
  <rect x="-31" y="90" width="62" height="280" rx="28" fill="#12202B"/>
</g>
</svg>
